<svg id="Calque_1" data-name="Calque 1" xmlns="http://www.w3.org/2000/svg" viewBox="0 0 301.01 79.29"><defs><style>.cls-1{fill:#262626;}.cls-2{fill:#fae404;}</style></defs><title>logo-skills-noir</title><path class="cls-1" d="M496,375.56h16.11q0,7.1,5.09,10.81,4.34,3.18,11.66,3.18a22.29,22.29,0,0,0,9.54-1.8q5.19-2.44,5.19-7.63,0-6.46-11.66-9.75-20.14-5.72-21.73-6.57-11.66-5.62-11.66-17.7a20.07,20.07,0,0,1,9-17.28q8.06-5.62,19.29-5.62,13,0,21.09,5.62,9.22,6.47,9.22,18.76H541q-.64-11.45-14.95-11.45a14.78,14.78,0,0,0-7.74,1.91,7.44,7.44,0,0,0-3.71,6.68q0,4.13,4.13,6,3.18,1.49,18.44,5.41,8.9,2.23,13.25,5.09a19,19,0,0,1,9.22,17,21.33,21.33,0,0,1-8.06,17.38q-8.48,6.89-23.43,6.89-13.67,0-22.47-6.47Q495.89,388.7,496,375.56Z" transform="translate(-495.99 -323.2)"/><path class="cls-2" d="M585.74,367.66l-9.54,9.65v24.38H559.56V326H576.2v31.38L605.77,326h20.78L597,355.89Z" transform="translate(-495.99 -323.2)"/><path class="cls-1" d="M682.21,401.68V326h16.64v61.69h36.89v14Z" transform="translate(-495.99 -323.2)"/><path class="cls-1" d="M629.21,401.68V326h16.64v61.69h36.89v14Z" transform="translate(-495.99 -323.2)"/><path class="cls-1" d="M733.3,375.56h16.11q0,7.1,5.09,10.81,4.34,3.18,11.66,3.18a22.29,22.29,0,0,0,9.54-1.8q5.19-2.44,5.19-7.63,0-6.46-11.66-9.75-20.14-5.72-21.73-6.57-11.66-5.62-11.66-17.7a20.07,20.07,0,0,1,9-17.28q8.06-5.62,19.29-5.62,13,0,21.09,5.62,9.22,6.47,9.22,18.76H778.35q-.64-11.45-14.95-11.45a14.78,14.78,0,0,0-7.74,1.91,7.44,7.44,0,0,0-3.71,6.68q0,4.13,4.13,6,3.18,1.49,18.44,5.41,8.9,2.23,13.25,5.09a19,19,0,0,1,9.22,17A21.33,21.33,0,0,1,789,395.59q-8.48,6.89-23.43,6.89-13.67,0-22.47-6.47Q733.19,388.7,733.3,375.56Z" transform="translate(-495.99 -323.2)"/><path class="cls-1" d="M603,365.21,629.41,402H608.53l-16.79-25Z" transform="translate(-495.99 -323.2)"/></svg>