<svg id="Calque_1" data-name="Calque 1" xmlns="http://www.w3.org/2000/svg" viewBox="0 0 34.18 21.04"><defs><style>.cls-1{fill:#262626;}</style></defs><title>Mail-picto</title><path class="cls-1" d="M691,385.83l8.82,7.05a2.43,2.43,0,0,0,.35-1.26V375.48a2.43,2.43,0,0,0-.52-1.51l-13.42,13.39a4.45,4.45,0,0,1-6.29,0L666.51,374a2.43,2.43,0,0,0-.51,1.49v16.15a2.43,2.43,0,0,0,.38,1.31l8.79-7.1,1,1.22-8.52,6.88a2.43,2.43,0,0,0,.81.14h29.29a2.43,2.43,0,0,0,.86-.16L690,387.05Z" transform="translate(-666 -373.03)"/><path class="cls-1" d="M683.09,387.09a2.86,2.86,0,0,0,2-.84l13.18-13.14a2.44,2.44,0,0,0-.57-.07H668.44a2.44,2.44,0,0,0-.59.08L681,386.25A2.86,2.86,0,0,0,683.09,387.09Z" transform="translate(-666 -373.03)"/></svg>